<?xml version="1.0" encoding="utf-8"?>
<!-- Generator: Adobe Illustrator 18.1.1, SVG Export Plug-In . SVG Version: 6.00 Build 0)  -->
<svg version="1.1" id="Layer_1" xmlns="http://www.w3.org/2000/svg" xmlns:xlink="http://www.w3.org/1999/xlink" x="0px" y="0px"
	 viewBox="0 0 960 560" enable-background="new 0 0 960 560" xml:space="preserve">
<g>
	<path fill="#FFFFFF" d="M212.2,239.1v11.8h-18v51.6h-13.8v-51.6h-17.8v-11.8H212.2z"/>
	<path fill="#FFFFFF" d="M260,256v46.4h-13.5v-6.8c-3.3,4.8-7.8,7.8-14.6,7.8c-14.1,0-22.6-10.9-22.6-24.4c0-13,7.9-24,22.3-24
		c6.2,0,11.7,3.1,14.8,7.3V256H260z M234.8,292.5c6.6,0,12.1-4.3,12.1-12.7c0-8.6-5.2-13.8-12.5-13.8c-7.4,0-11.6,6-11.6,13.1
		C222.8,286.5,227.4,292.5,234.8,292.5z"/>
	<path fill="#FFFFFF" d="M270.9,302.4V237h13.5v65.4H270.9z"/>
	<path fill="#FFFFFF" d="M323.1,256H338v1.8l-15.4,19.4l6.1,9.7c2.1,3.2,3.7,4.2,6.3,4.2c1,0,3.3-0.5,5-1.6l5.1,9.5
		c-4.2,3.7-8.5,4.5-12.1,4.5c-5.2,0-10-1.7-13.7-7.1l-9.3-15v21.1h-13.5V237h13.5v37.8L323.1,256z"/>
	<path fill="#FFFFFF" d="M357.5,236.1c4.8,0,8.6,3.2,8.6,7.7c0,4.4-3.8,7.5-8.6,7.5c-4.9,0-8.5-3.1-8.5-7.5
		C349,239.2,352.6,236.1,357.5,236.1z M350.6,302.4V256h13.5v46.4H350.6z"/>
	<path fill="#FFFFFF" d="M375.9,256h13.5v6.3c3.9-5.4,8.8-7.3,14.4-7.3c13,0,16.6,10.4,16.6,22.2v25.2h-13.5v-25
		c0-6.4-2.4-11.3-8.6-11.3c-6.2,0-8.9,5-8.9,11.4v24.9h-13.5V256z"/>
	<path fill="#FFFFFF" d="M478.8,299.2c0,18.3-11.9,25.4-25.1,25.4c-10.3,0-17.3-2.6-22-6.4l5.3-10.5c2.7,2.4,8.8,5.2,13.9,5.2
		c7,0,14.4-2.1,14.4-12.2v-5.1c-3.3,4.8-7.8,7.8-14.6,7.8c-14.1,0-22.6-10.9-22.6-24.4c0-13,7.9-24,22.3-24c6.2,0,11.7,3.1,14.8,7.3
		V256h13.5V299.2z M453.6,292.5c6.6,0,12.1-4.3,12.1-12.7c0-8.6-5.2-13.8-12.5-13.8c-7.4,0-11.6,6-11.6,13.1
		C441.6,286.5,446.2,292.5,453.6,292.5z"/>
	<path fill="#FFFFFF" d="M560.5,237v65.4H547v-6.8c-3.3,4.8-7.8,7.8-14.6,7.8c-14.1,0-22.6-10.9-22.6-24.4c0-13,7.9-24,22.3-24
		c6.2,0,11.7,3.1,14.8,7.3V237H560.5z M535.3,292.5c6.6,0,12.1-4.3,12.1-12.7c0-8.6-5.2-13.8-12.5-13.8c-7.4,0-11.6,6-11.6,13.1
		C523.3,286.5,527.8,292.5,535.3,292.5z"/>
	<path fill="#FFFFFF" d="M616.1,294.3c-6.6,7.2-15.4,9.1-21.6,9.1c-17.2,0-26.6-10.8-26.6-24c0-13.7,10.7-24.4,25.6-24.4
		c12.8,0,25.1,8.9,25.1,27.3h-37.4c0.3,5.8,5.6,10,14.2,10c4.8,0,9.6-2.4,12.8-5.5L616.1,294.3z M581.6,274.2h23.2
		c-0.9-6-7-8.2-11.5-8.2C589,266,583.2,268,581.6,274.2z"/>
	<path fill="#FFFFFF" d="M631.8,286.1c1.4,5.3,6.1,7,9.8,7c3,0,6.1-1.2,6.1-3.5c0-1.5-0.9-2.6-3.4-3.5l-8.1-3.4
		c-11-3.9-11.6-11.2-11.6-13.3c0-9.3,8.2-14.2,18.2-14.2c5.3,0,12.4,1.4,16.7,9.8l-10.4,4.8c-1.2-3.7-4.5-4.4-6.6-4.4
		c-2.5,0-5.2,1.4-5.2,3.8c0,2,2,3.1,4.3,4l7,2.7c10.9,3.2,11.9,10.3,11.9,13.4c0,9.5-8.8,14.4-19,14.4c-6.9,0-16.3-2.2-19.4-11.8
		L631.8,286.1z"/>
	<path fill="#FFFFFF" d="M675.7,236.1c4.8,0,8.6,3.2,8.6,7.7c0,4.4-3.8,7.5-8.6,7.5c-4.9,0-8.5-3.1-8.5-7.5
		C667.2,239.2,670.8,236.1,675.7,236.1z M668.9,302.4V256h13.5v46.4H668.9z"/>
	<path fill="#FFFFFF" d="M742,299.2c0,18.3-11.9,25.4-25.1,25.4c-10.3,0-17.3-2.6-22-6.4l5.3-10.5c2.7,2.4,8.8,5.2,13.9,5.2
		c7,0,14.4-2.1,14.4-12.2v-5.1c-3.3,4.8-7.8,7.8-14.6,7.8c-14.1,0-22.6-10.9-22.6-24.4c0-13,7.9-24,22.3-24c6.2,0,11.7,3.1,14.8,7.3
		V256H742V299.2z M716.8,292.5c6.6,0,12.1-4.3,12.1-12.7c0-8.6-5.2-13.8-12.5-13.8c-7.4,0-11.6,6-11.6,13.1
		C704.9,286.5,709.4,292.5,716.8,292.5z"/>
	<path fill="#FFFFFF" d="M754.1,256h13.5v6.3c3.9-5.4,8.8-7.3,14.4-7.3c13,0,16.6,10.4,16.6,22.2v25.2h-13.5v-25
		c0-6.4-2.4-11.3-8.6-11.3c-6.2,0-8.9,5-8.9,11.4v24.9h-13.5V256z"/>
</g>
</svg>
