<?xml version="1.0" encoding="utf-8"?>
<!-- Generator: Adobe Illustrator 18.1.1, SVG Export Plug-In . SVG Version: 6.00 Build 0)  -->
<!DOCTYPE svg PUBLIC "-//W3C//DTD SVG 1.1//EN" "http://www.w3.org/Graphics/SVG/1.1/DTD/svg11.dtd">
<svg version="1.1" id="Layer_1" xmlns="http://www.w3.org/2000/svg" xmlns:xlink="http://www.w3.org/1999/xlink" x="0px" y="0px"
	 viewBox="-113 202 1231 180" enable-background="new -113 202 1231 180" xml:space="preserve">
<g>
	<path fill="#1b1b1b" d="M-11.9,212v22.6h-34.5v98.9H-73v-98.9h-34.2V212L-11.9,212L-11.9,212z"/>
	<path fill="#1b1b1b" d="M79.9,244.4v89H54v-13c-6.4,9.2-14.9,14.9-27.9,14.9c-27.1,0-43.4-20.8-43.4-46.9c0-25,15.1-46,42.9-46
		c12,0,22.4,5.9,28.5,14.1v-12.1L79.9,244.4L79.9,244.4z M31.5,314.4c12.7,0,23.3-8.2,23.3-24.3c0-16.5-9.9-26.6-23.9-26.6
		c-14.2,0-22.2,11.5-22.2,25.2C8.5,302.9,17.2,314.4,31.5,314.4z"/>
	<path fill="#1b1b1b" d="M100.7,333.5V208h25.9v125.5H100.7z"/>
	<path fill="#1b1b1b" d="M200.8,244.4h28.6v3.5L199.9,285l11.6,18.6c4,6.1,7.1,8,12.1,8c1.9,0,6.4-0.9,9.5-3.1l9.7,18.2
		c-8,7.1-16.3,8.7-23.3,8.7c-10.1,0-19.3-3.3-26.4-13.5l-17.9-28.8v40.4h-25.9V208h25.9v72.5L200.8,244.4z"/>
	<path fill="#1b1b1b" d="M266.9,206.1c9.2,0,16.5,6.1,16.5,14.8c0,8.5-7.3,14.4-16.5,14.4c-9.4,0-16.3-5.9-16.3-14.4
		C250.6,212.2,257.6,206.1,266.9,206.1z M253.7,333.5v-89h25.9v89H253.7z"/>
	<path fill="#1b1b1b" d="M302.2,244.4h25.9v12.1c7.5-10.4,16.8-14.1,27.6-14.1c25,0,31.8,20,31.8,42.5v48.4h-25.9v-47.9
		c0-12.3-4.5-21.7-16.5-21.7s-17,9.5-17,21.9v47.7h-25.9V244.4z"/>
	<path fill="#1b1b1b" d="M499.6,327.2c0,35.1-22.9,48.8-48.2,48.8c-19.8,0-33.1-5-42.2-12.3l10.2-20.1c5.2,4.5,16.8,10.1,26.7,10.1
		c13.4,0,27.6-4,27.6-23.4v-9.7c-6.4,9.2-14.9,14.9-27.9,14.9c-27.1,0-43.4-20.8-43.4-46.9c0-25,15.1-46,42.9-46
		c12,0,22.4,5.9,28.5,14.1v-12.1h25.9v82.6H499.6z M451.2,314.4c12.7,0,23.3-8.2,23.3-24.3c0-16.5-9.9-26.6-23.9-26.6
		c-14.2,0-22.2,11.5-22.2,25.2C428.3,302.9,437,314.4,451.2,314.4z"/>
	<path fill="#1b1b1b" d="M656.3,208v125.5h-25.9v-13c-6.4,9.2-14.9,14.9-27.9,14.9c-27.1,0-43.4-20.8-43.4-46.9
		c0-25,15.1-46,42.9-46c12,0,22.4,5.9,28.5,14.1v-48.6L656.3,208L656.3,208z M607.9,314.4c12.7,0,23.3-8.2,23.3-24.3
		c0-16.5-9.9-26.6-23.9-26.6c-14.2,0-22.2,11.5-22.2,25.2C585,302.9,593.7,314.4,607.9,314.4z"/>
	<path fill="#1b1b1b" d="M763.1,317.8c-12.7,13.9-29.5,17.5-41.5,17.5c-33,0-51-20.7-51-46c0-26.2,20.5-46.9,49.1-46.9
		c24.6,0,48.2,17,48.2,52.4h-71.7c0.5,11.1,10.8,19.3,27.2,19.3c9.2,0,18.4-4.7,24.6-10.6L763.1,317.8z M696.8,279.2h44.6
		c-1.7-11.5-13.4-15.8-22-15.8C711,263.5,699.9,267.2,696.8,279.2z"/>
	<path fill="#1b1b1b" d="M793.1,302c2.6,10.2,11.6,13.4,18.7,13.4c5.7,0,11.6-2.3,11.6-6.8c0-3-1.7-5-6.6-6.8l-15.6-6.6
		c-21.2-7.5-22.2-21.5-22.2-25.5c0-17.9,15.8-27.2,34.9-27.2c10.2,0,23.8,2.8,32.1,18.7l-20,9.2c-2.3-7.1-8.7-8.5-12.7-8.5
		c-4.9,0-9.9,2.8-9.9,7.3c0,3.8,3.8,5.9,8.3,7.6l13.4,5.2c21,6.1,22.9,19.8,22.9,25.7c0,18.2-16.8,27.6-36.4,27.6
		c-13.2,0-31.2-4.2-37.3-22.7L793.1,302z"/>
	<path fill="#1b1b1b" d="M877.4,206.1c9.2,0,16.5,6.1,16.5,14.8c0,8.5-7.3,14.4-16.5,14.4c-9.4,0-16.3-5.9-16.3-14.4
		C861.1,212.2,868,206.1,877.4,206.1z M864.2,333.5v-89h25.9v89H864.2z"/>
	<path fill="#1b1b1b" d="M1004.6,327.2c0,35.1-22.9,48.8-48.2,48.8c-19.8,0-33.1-5-42.2-12.3l10.2-20.1c5.2,4.5,16.8,10.1,26.7,10.1
		c13.4,0,27.6-4,27.6-23.4v-9.7c-6.4,9.2-14.9,14.9-27.9,14.9c-27.1,0-43.4-20.8-43.4-46.9c0-25,15.1-46,42.9-46
		c12,0,22.4,5.9,28.5,14.1v-12.1h25.9L1004.6,327.2L1004.6,327.2z M956.2,314.4c12.7,0,23.3-8.2,23.3-24.3
		c0-16.5-9.9-26.6-23.9-26.6c-14.2,0-22.2,11.5-22.2,25.2C933.3,302.9,942,314.4,956.2,314.4z"/>
	<path fill="#1b1b1b" d="M1027.9,244.4h25.9v12.1c7.5-10.4,16.8-14.1,27.6-14.1c25,0,31.8,20,31.8,42.5v48.4h-25.9v-47.9
		c0-12.3-4.5-21.7-16.5-21.7s-17,9.5-17,21.9v47.7h-25.9V244.4z"/>
</g>
</svg>
